<svg width="20" height="20" viewBox="0 0 20 20" fill="none" xmlns="http://www.w3.org/2000/svg">
<path fill-rule="evenodd" clip-rule="evenodd" d="M19.6339 17.5911C19.5011 17.7235 19.3409 17.8928 19.1711 18.0718C18.7474 18.5215 18.2181 19.0806 17.8863 19.3073C16.1406 20.5001 13.8053 19.9294 12.1534 19.2411C9.97421 18.3331 7.6017 16.6595 5.47145 14.529C3.3392 12.3983 1.66576 10.025 0.757795 7.84714C0.0703267 6.19487 -0.501639 3.85904 0.691392 2.11303C0.917944 1.78101 1.47827 1.25248 1.92739 0.827931C2.10707 0.658642 2.27503 0.498688 2.40784 0.366311C2.64362 0.131703 2.9627 0 3.29532 0C3.62793 0 3.94701 0.131703 4.18279 0.366311L7.39468 3.57726C7.62916 3.81303 7.76078 4.13202 7.76078 4.46454C7.76078 4.79706 7.62916 5.11606 7.39468 5.35182L6.51972 6.22503C6.22751 6.5151 6.03678 6.89176 5.97591 7.29897C5.91504 7.70618 5.98728 8.12216 6.18188 8.485C7.38533 10.7564 9.24324 12.614 11.5148 13.8171C11.8776 14.0116 12.2935 14.0838 12.7006 14.0228C13.1077 13.9618 13.4842 13.771 13.774 13.4787L14.6468 12.6054C14.8826 12.3708 15.2017 12.2391 15.5343 12.2391C15.8669 12.2391 16.186 12.3708 16.4218 12.6054L19.6339 15.8169C19.8684 16.0526 20 16.3716 20 16.704C20 17.0365 19.8684 17.3554 19.6339 17.5911Z" fill="#E74E0F"/>
</svg>
