<svg width="52" height="70" viewBox="0 0 52 70" fill="none" xmlns="http://www.w3.org/2000/svg">
<path d="M47.9476 5.04321L40.9366 1.02694C40.63 0.803215 40.2997 0.613794 39.9517 0.462071L39.8484 0.403613L39.844 0.412361C37.9578 -0.354403 35.5214 -0.0771072 32.8636 1.45684L11.2695 13.9224C5.332 17.3507 0.474121 25.7655 0.474121 32.6218V57.5551C0.474121 60.8982 1.6351 63.2695 3.50771 64.4332L3.48966 64.466L11.2816 68.8804L15.6632 61.2519L32.8636 51.3216C38.7999 47.8938 43.6589 39.479 43.6589 32.6221V12.5092L47.9476 5.04321Z" fill="#0893FC"/>
<path d="M47.9476 5.04321L40.4433 3.28279C40.1366 3.05965 38.6041 3.06507 38.2546 2.9126L37.698 2.69002L36.6961 2.50409C34.8099 1.73733 35.5214 -0.0771072 32.8636 1.45684L11.2695 13.9224C5.332 17.3507 0.474121 25.7655 0.474121 32.6218V57.5551C0.474121 60.8982 1.6351 63.2695 3.50771 64.4332L3.48966 64.466L11.2816 68.8804L15.6632 61.2519L32.8636 51.3216C38.7999 47.8938 43.6589 39.479 43.6589 32.6221V12.5092L47.9476 5.04321Z" fill="#1A76FC"/>
<path d="M0.885413 29.0299C0.623391 30.2506 0.474121 31.4598 0.474121 32.6218V57.5551C0.474121 60.8982 1.6351 63.2695 3.50771 64.4332L3.48966 64.466L11.2816 68.8804L15.6632 61.2519L32.8636 51.3216C33.8721 50.7396 34.8471 50.0036 35.7741 49.1647L0.885413 29.0299Z" fill="#0B61F9"/>
<path d="M18.6907 18.2258C12.7532 21.6542 7.89418 30.069 7.89418 36.9253V61.8585C7.89418 68.7153 12.7532 71.5197 18.6907 68.0914L40.2836 55.6253C46.2211 52.1969 51.0801 43.7827 51.0801 36.9253V11.993C51.0801 5.13625 46.2211 2.33232 40.2836 5.76013L18.6907 18.2258Z" fill="white"/>
<path d="M51.0801 11.993C51.0801 5.13625 46.2211 2.33232 40.2836 5.76013L18.6907 18.2258C12.7532 21.6542 7.89418 30.069 7.89418 36.9253V61.8585C7.89418 68.7153 12.7532 71.5197 18.6907 68.0914" fill="#F5F5F5"/>
<path d="M13.8951 70H13.894C9.97938 70 7.45011 66.804 7.45011 61.8585V36.9253C7.45011 29.9098 12.3923 21.348 18.4675 17.8409L40.0616 5.37424C41.8121 4.36365 43.5009 3.85224 45.0808 3.85224C48.9953 3.85224 51.5258 7.04815 51.5258 11.9931V36.9258C51.5258 43.9422 46.5825 52.5037 40.5073 56.0108L18.9132 68.4774C17.1621 69.487 15.4745 70 13.8951 70ZM45.0808 4.74245C43.6589 4.74245 42.12 5.21442 40.5073 6.14462L18.9132 18.6113C13.0835 21.9778 8.3399 30.1931 8.3399 36.9251V61.8584C8.3399 66.3308 10.4679 69.1089 13.894 69.1089H13.8951C15.317 69.1089 16.8548 68.6369 18.4675 67.7067L40.0616 55.2401C45.8913 51.8741 50.6349 43.6577 50.6349 36.9257V11.993C50.6349 7.52068 48.5076 4.74245 45.0808 4.74245Z" fill="white"/>
<path d="M27.7956 39.0006L19.541 48.9648L20.6943 47.5768L28.3206 39.3391L27.7956 39.0006ZM47.0174 26.7205C47.0185 26.7981 47.0185 26.8758 47.0185 26.9535C47.0184 26.8764 47.0174 26.7981 47.0174 26.7205ZM30.3267 18.8586C21.1347 24.1655 13.7059 36.3943 13.7338 46.172C13.7496 51.6578 16.1154 55.2043 19.8041 56.3292C18.0508 55.7932 16.5989 54.7038 15.5543 53.1255L19.7412 48.6033L28.6078 32.6181L32.9615 35.3076L32.3878 34.9499L40.1295 26.5935L41.1133 25.3981L32.0515 41.7427L40.9318 25.729L45.6093 20.6737C46.4756 22.2793 46.9776 24.2978 47.017 26.7035C46.8626 17.1151 39.4392 13.5976 30.3267 18.8586Z" fill="#0382F9"/>
<path d="M40.1453 26.576L40.1295 26.5935L32.3878 34.9499L32.9615 35.3076L40.1453 26.576Z" fill="#0656F7"/>
<path d="M45.6093 20.6737L40.9318 25.729L32.0515 41.7427L28.3223 39.3382L28.3206 39.3391L20.6943 47.5768L19.541 48.9648L19.7461 48.5985L19.7412 48.6033L15.5543 53.1255C16.5989 54.7038 18.0508 55.7932 19.8041 56.3292C19.8611 56.3467 19.9168 56.363 19.9742 56.38L19.9934 63.1291L25.6508 56.286C27.1646 55.8916 28.7697 55.2223 30.4262 54.2663C39.6188 48.9594 47.0465 36.7306 47.0185 26.9535C47.0185 26.8758 47.0185 26.7981 47.0174 26.7205C47.0163 26.7145 47.017 26.7089 47.017 26.7035C46.9776 24.2978 46.4756 22.2793 45.6093 20.6737Z" fill="#0656F7"/>
</svg>
