<svg width="90" height="90" viewBox="0 0 90 90" fill="none" xmlns="http://www.w3.org/2000/svg">
<path d="M0 15C0 6.71573 6.71573 0 15 0H75C83.2843 0 90 6.71573 90 15V75C90 83.2843 83.2843 90 75 90H15C6.71573 90 0 83.2843 0 75V15Z" fill="#E74E0F"/>
<path d="M60.7912 72.3672V61.6849H52.419V72.3672H49.547V55.4411H41.1747V72.3672H38.3027V58.563H29.9304V72.3672H26V76H64.7216V72.3672H60.7912ZM36.5893 26.4277H39.6429C40.6021 28.3202 42.1315 29.7051 43.9247 30.1942V35.373H40.8724C39.9132 35.373 39.1354 36.3567 39.1354 37.5702V41.1384H36.6305V44.7713H54.0911V41.1384H51.5861V37.5702C51.5861 36.3567 50.8085 35.373 49.8491 35.373H46.7968V30.1942C48.59 29.7051 50.1195 28.3202 51.0786 26.4277H54.1322C56.4205 26.4277 58.2821 24.0729 58.2821 21.1786C58.2821 18.2842 56.4205 15.9294 54.1322 15.9294H52.1498V14H38.5718V15.9295H36.5893C34.3011 15.9295 32.4394 18.2843 32.4394 21.1787C32.4395 24.0731 34.3012 26.4277 36.5893 26.4277ZM52.1499 21.8006V19.5623H54.1323C54.8369 19.5623 55.4102 20.2874 55.4102 21.1787C55.4102 22.0699 54.8369 22.795 54.1323 22.795H52.1032C52.1329 22.4686 52.1499 22.1371 52.1499 21.8006ZM36.5893 19.5623H38.5718V21.8006C38.5718 22.1371 38.5887 22.4686 38.6185 22.795H36.5893C35.8847 22.795 35.3115 22.0699 35.3115 21.1787C35.3116 20.2873 35.8848 19.5623 36.5893 19.5623Z" fill="white"/>
</svg>
