<svg width="15" height="15" viewBox="0 0 15 15" fill="none" xmlns="http://www.w3.org/2000/svg">
<path d="M14.8458 7.12127L7.88065 0.158431C7.83084 0.108229 7.77158 0.0683835 7.70629 0.0411916C7.641 0.0139997 7.57097 0 7.50024 0C7.42951 0 7.35948 0.0139997 7.29419 0.0411916C7.2289 0.0683835 7.16965 0.108229 7.11984 0.158431L0.15465 7.12127C0.0803056 7.19659 0.029944 7.29224 0.00991951 7.39614C-0.0101049 7.50004 0.00110509 7.60754 0.0421351 7.70508C0.0823297 7.80289 0.150587 7.88662 0.238306 7.94572C0.326025 8.00481 0.429279 8.03663 0.535056 8.03716H1.07084V14.4644C1.07084 14.6064 1.12729 14.7427 1.22777 14.8431C1.32825 14.9436 1.46452 15 1.60662 15H5.35711V9.64397C5.35711 9.50191 5.41356 9.36568 5.51404 9.26524C5.61452 9.16479 5.75079 9.10836 5.89289 9.10836H9.1076C9.24969 9.10836 9.38597 9.16479 9.48645 9.26524C9.58693 9.36568 9.64338 9.50191 9.64338 9.64397V15H13.3403C13.4824 15 13.6187 14.9436 13.7191 14.8431C13.8196 14.7427 13.8761 14.6064 13.8761 14.4644V8.03716H14.4654C14.5712 8.03663 14.6745 8.00481 14.7622 7.94572C14.8499 7.88662 14.9182 7.80289 14.9584 7.70508C14.9994 7.60754 15.0106 7.50004 14.9906 7.39614C14.9705 7.29224 14.9202 7.19659 14.8458 7.12127Z" fill="#E74E0F"/>
</svg>
