<svg width="60" height="60" viewBox="0 0 60 60" fill="none" xmlns="http://www.w3.org/2000/svg">
<rect width="60" height="60" rx="15" fill="#E74E0F"/>
<path d="M49.9609 21.7601C49.8672 19.6347 49.5235 18.1736 49.0311 16.9074C48.5231 15.5635 47.7417 14.3603 46.7181 13.36C45.7178 12.3442 44.5066 11.5548 43.1782 11.0549C41.9048 10.5626 40.4513 10.2188 38.3259 10.1252C36.1846 10.0234 35.5049 10 30.0741 10C24.6434 10 23.9637 10.0234 21.8303 10.1172C19.705 10.211 18.2439 10.555 16.9781 11.0469C15.6337 11.5548 14.4305 12.3362 13.4303 13.36C12.4144 14.3602 11.6255 15.5714 11.1251 16.8998C10.6328 18.1736 10.2891 19.6269 10.1954 21.7521C10.0938 23.8934 10.0702 24.5732 10.0702 30.0039C10.0702 35.4347 10.0938 36.1145 10.1874 38.2477C10.2812 40.3731 10.6252 41.8342 11.1176 43.1004C11.6255 44.4443 12.4144 45.6475 13.4303 46.6478C14.4305 47.6636 15.6417 48.453 16.9701 48.9529C18.2438 49.4452 19.697 49.789 21.8228 49.8826C23.9557 49.9767 24.6358 49.9998 30.0666 49.9998C35.4973 49.9998 36.1771 49.9767 38.3104 49.8826C40.4357 49.7889 41.8968 49.4453 43.1626 48.9529C44.4921 48.4389 45.6995 47.6528 46.7074 46.6449C47.7153 45.6371 48.5015 44.4298 49.0156 43.1004C49.5076 41.8266 49.8516 40.373 49.9453 38.2477C50.0391 36.1145 50.0625 35.4347 50.0625 30.0039C50.0625 24.5732 50.0545 23.8933 49.9609 21.7601ZM46.3588 38.0914C46.2727 40.0449 45.9446 41.0998 45.6711 41.8031C44.9989 43.5456 43.6159 44.9287 41.8733 45.6009C41.1701 45.8743 40.1076 46.2025 38.1617 46.2882C36.0519 46.3823 35.4192 46.4054 30.0821 46.4054C24.7451 46.4054 24.1044 46.3823 22.0022 46.2882C20.0487 46.2025 18.9938 45.8743 18.2905 45.6009C17.4234 45.2803 16.6341 44.7724 15.9933 44.1082C15.3292 43.4597 14.8212 42.6783 14.5007 41.8111C14.2272 41.1078 13.8991 40.0449 13.8134 38.0994C13.7193 35.9896 13.6962 35.3565 13.6962 30.0195C13.6962 24.6824 13.7193 24.0417 13.8134 21.9399C13.8991 19.9864 14.2272 18.9315 14.5007 18.2282C14.8212 17.3607 15.3292 16.5716 16.0013 15.9307C16.6496 15.2665 17.431 14.7586 18.2985 14.4384C19.0017 14.165 20.0646 13.8368 22.0101 13.7507C24.1199 13.657 24.753 13.6335 30.0897 13.6335C35.4347 13.6335 36.0674 13.657 38.1696 13.7507C40.1231 13.8368 41.178 14.1649 41.8813 14.4384C42.7484 14.7586 43.5378 15.2665 44.1785 15.9307C44.8427 16.5793 45.3506 17.3607 45.6711 18.2282C45.9446 18.9315 46.2727 19.994 46.3587 21.9399C46.4525 24.0497 46.4759 24.6824 46.4759 30.0195C46.4759 35.3565 46.4526 35.9816 46.3588 38.0914Z" fill="white"/>
<path d="M30.0742 19.7285C24.4014 19.7285 19.7988 24.3308 19.7988 30.0039C19.7988 35.677 24.4014 40.2794 30.0742 40.2794C35.7472 40.2794 40.3497 35.677 40.3497 30.0039C40.3497 24.3308 35.7472 19.7285 30.0742 19.7285ZM30.0742 36.6693C26.394 36.6693 23.4087 33.6845 23.4087 30.0039C23.4087 26.3233 26.394 23.3385 30.0742 23.3385C33.7547 23.3385 36.7396 26.3233 36.7396 30.0039C36.7396 33.6845 33.7546 36.6693 30.0742 36.6693ZM43.1551 19.3221C43.1551 20.6469 42.0809 21.721 40.7558 21.721C39.4311 21.721 38.357 20.6469 38.357 19.3221C38.357 17.9972 39.4311 16.9234 40.7559 16.9234C42.0809 16.9234 43.1551 17.9971 43.1551 19.3221Z" fill="white"/>
</svg>
