<svg width="15" height="16" viewBox="0 0 15 16" fill="none" xmlns="http://www.w3.org/2000/svg">
<path fill-rule="evenodd" clip-rule="evenodd" d="M14.7261 13.5197C14.6265 13.6214 14.5064 13.7516 14.379 13.8892C14.0612 14.2348 13.6642 14.6644 13.4153 14.8387C12.106 15.7554 10.3544 15.3168 9.11544 14.7878C7.481 14.09 5.70154 12.8037 4.10377 11.1663C2.50452 9.52876 1.24938 7.70479 0.568372 6.03095C0.0527474 4.76109 -0.376247 2.96588 0.518568 1.62398C0.68849 1.3688 1.10875 0.962599 1.44561 0.636309C1.58037 0.506201 1.70635 0.383268 1.80596 0.28153C1.9828 0.101221 2.22213 0 2.4716 0C2.72107 0 2.9604 0.101221 3.13724 0.28153L5.54626 2.74931C5.72213 2.93052 5.82085 3.17568 5.82085 3.43124C5.82085 3.6868 5.72213 3.93196 5.54626 4.11316L4.89001 4.78427C4.67085 5.0072 4.52779 5.29669 4.48214 5.60965C4.43648 5.92261 4.49066 6.24232 4.63662 6.52118C5.53925 8.26687 6.93275 9.69453 8.63653 10.6192C8.90861 10.7687 9.22055 10.8241 9.52588 10.7773C9.83121 10.7304 10.1136 10.5837 10.331 10.3591L10.9856 9.68796C11.1625 9.50765 11.4018 9.40643 11.6513 9.40643C11.9008 9.40643 12.1401 9.50765 12.3169 9.68796L14.7261 12.1562C14.902 12.3373 15.0007 12.5824 15.0007 12.8379C15.0007 13.0935 14.902 13.3386 14.7261 13.5197Z" fill="#E74E0F"/>
</svg>
