<svg width="90" height="90" viewBox="0 0 90 90" fill="none" xmlns="http://www.w3.org/2000/svg">
<path d="M0 15C0 6.71573 6.71573 0 15 0H75C83.2843 0 90 6.71573 90 15V75C90 83.2843 83.2843 90 75 90H15C6.71573 90 0 83.2843 0 75V15Z" fill="#E74E0F"/>
<path d="M45 14C38.8688 14 32.8753 15.8181 27.7773 19.2244C22.6794 22.6308 18.7061 27.4723 16.3597 33.1368C14.0134 38.8013 13.3995 45.0344 14.5957 51.0478C15.7918 57.0612 18.7443 62.5849 23.0797 66.9203C27.4151 71.2557 32.9388 74.2082 38.9522 75.4043C44.9656 76.6005 51.1987 75.9866 56.8632 73.6403C62.5277 71.2939 67.3692 67.3206 70.7756 62.2227C74.1819 57.1247 76 51.1312 76 45C76 36.7783 72.7339 28.8933 66.9203 23.0797C61.1067 17.2661 53.2217 14 45 14ZM50.3913 67.2795V62.5217H39.6087V67.2795C35.513 66.2896 31.7696 64.1894 28.7901 61.2099C25.8106 58.2304 23.7104 54.487 22.7204 50.3913H27.4783V39.6087H22.7204C23.9222 34.6046 26.7737 30.1507 30.8153 26.9647C34.857 23.7788 39.8536 22.0462 45 22.0462C50.1464 22.0462 55.143 23.7788 59.1847 26.9647C63.2264 30.1507 66.0778 34.6046 67.2796 39.6087H62.5217V50.3913H67.2796C66.2896 54.487 64.1894 58.2304 61.2099 61.2099C58.2304 64.1894 54.487 66.2896 50.3913 67.2795Z" fill="white"/>
<path d="M34.9991 40.9565H30.1739V49.0435H34.9991C35.5414 50.3855 36.3484 51.6046 37.3719 52.6281C38.3954 53.6516 39.6145 54.4586 40.9565 55.0009V59.8261H49.0435V55.0009C50.3855 54.4586 51.6046 53.6516 52.6281 52.6281C53.6516 51.6046 54.4586 50.3855 55.0009 49.0435H59.8261V40.9565H55.0009C54.1971 38.9622 52.8154 37.2538 51.0333 36.0507C49.2513 34.8475 47.1502 34.2047 45 34.2047C42.8498 34.2047 40.7487 34.8475 38.9667 36.0507C37.1846 37.2538 35.8029 38.9622 34.9991 40.9565ZM45 50.3913C43.9337 50.3913 42.8914 50.0751 42.0048 49.4827C41.1182 48.8903 40.4271 48.0483 40.0191 47.0632C39.611 46.078 39.5043 44.994 39.7123 43.9482C39.9203 42.9024 40.4338 41.9418 41.1878 41.1878C41.9418 40.4338 42.9024 39.9203 43.9482 39.7123C44.994 39.5043 46.078 39.611 47.0632 40.0191C48.0483 40.4271 48.8903 41.1181 49.4827 42.0047C50.0751 42.8913 50.3913 43.9337 50.3913 45C50.3913 46.4299 49.8233 47.8012 48.8122 48.8122C47.8012 49.8233 46.4299 50.3913 45 50.3913Z" fill="white"/>
</svg>
