<svg width="50" height="48" viewBox="0 0 50 48" fill="none" xmlns="http://www.w3.org/2000/svg">
<path d="M28.472 45.9255V37.4759C28.472 36.3299 29.3893 35.4014 30.5208 35.4014C34.558 35.4014 36.7541 31.2079 37.0585 22.9313L30.5208 22.9313C29.3893 22.9313 28.472 22.0019 28.472 20.8564L28.472 3.01537C28.472 1.86999 29.3893 0.941328 30.5208 0.941328H47.9516C49.0836 0.941328 50 1.87072 50 3.01537L50 20.8564C50 24.824 49.6055 28.465 48.8279 31.6793C48.0304 34.9752 46.8062 37.8569 45.1903 40.2447C43.5277 42.6987 41.4479 44.6243 39.0083 45.9658C36.5523 47.3155 33.6962 48 30.5201 48C29.3893 48 28.472 47.0715 28.472 45.9255ZM2.04897 35.4012C0.917989 35.4012 2.12833e-07 36.3306 2.12833e-07 37.4757V45.9254C2.12833e-07 47.0713 0.917846 47.9999 2.04897 47.9999C5.22376 47.9999 8.08029 47.3152 10.5355 45.9657C12.9755 44.6242 15.0564 42.6986 16.7193 40.2446C18.3346 37.8568 19.5588 34.9749 20.3565 31.6783C21.1337 28.463 21.5281 24.822 21.5281 20.8562L21.5281 3.01523C21.5281 1.86985 20.6106 0.941182 19.4793 0.941182H2.04911C0.918133 0.941182 0.00100121 1.87057 0.00100121 3.01523L0.00100121 20.8564C0.00100121 22.0018 0.91799 22.9313 2.04911 22.9313L8.49352 22.9313C8.19373 31.2078 6.02974 35.4012 2.04897 35.4012Z" fill="#1B2733"/>
</svg>
