<svg width="60" height="60" viewBox="0 0 60 60" fill="none" xmlns="http://www.w3.org/2000/svg">
<rect width="60" height="60" rx="15" fill="#E74E0F"/>
<path d="M45.9828 21.0139C43.901 21.0139 41.9801 20.3322 40.4376 19.1823C38.6686 17.864 37.3975 15.9302 36.9486 13.7014C36.8361 13.141 36.7769 12.5713 36.7719 12H30.8249L30.8178 36.8594C30.8178 39.2114 29.2682 41.2058 27.12 41.9072C26.4766 42.1174 25.7989 42.2063 25.1223 42.1691C24.2274 42.1205 23.3888 41.8536 22.6599 41.4227C21.1089 40.5058 20.0573 38.8424 20.0288 36.9397C19.9839 33.9658 22.4163 31.5412 25.4229 31.5412C26.0164 31.5412 26.5864 31.6369 27.12 31.8109V25.8427C26.5572 25.7603 25.9844 25.7173 25.4051 25.7173C22.1142 25.7173 19.0363 27.0694 16.8362 29.5053C15.1733 31.3461 14.1758 33.6946 14.0219 36.1573C13.8203 39.3924 15.0179 42.4677 17.3406 44.7367C17.6819 45.0698 18.0403 45.3789 18.415 45.6641C20.4064 47.1789 22.8409 48 25.4051 48C25.9844 48 26.5572 47.9577 27.12 47.8754C29.5154 47.5247 31.7255 46.4409 33.4696 44.7367C35.6127 42.6431 36.7969 39.8635 36.8097 36.9051L36.7791 23.7674C37.8039 24.5487 38.9265 25.1958 40.1192 25.6927C41.9851 26.4708 43.9637 26.8652 45.9999 26.8645V21.0125C46.0014 21.0139 45.9828 21.0139 45.9828 21.0139Z" fill="white"/>
</svg>
