<svg width="60" height="60" viewBox="0 0 60 60" fill="none" xmlns="http://www.w3.org/2000/svg">
<rect width="60" height="60" rx="15" fill="#E74E0F"/>
<path d="M48.7273 20.7715C48.2952 19.165 47.0285 17.8986 45.4222 17.466C42.4877 16.6631 30.7495 16.6631 30.7495 16.6631C30.7495 16.6631 19.0118 16.6631 16.0773 17.4356C14.5019 17.8677 13.2044 19.1653 12.7723 20.7715C12 23.7058 12 29.7911 12 29.7911C12 29.7911 12 35.9071 12.7723 38.8106C13.2048 40.4169 14.471 41.6834 16.0775 42.1159C19.0427 42.919 30.75 42.919 30.75 42.919C30.75 42.919 42.4877 42.919 45.4222 42.1465C47.0287 41.7142 48.2952 40.4478 48.7277 38.8415C49.4997 35.907 49.4997 29.8219 49.4997 29.8219C49.4997 29.8219 49.5306 23.7057 48.7273 20.7715ZM27.0123 35.4129V24.1692L36.7732 29.791L27.0123 35.4129Z" fill="white"/>
</svg>
